#N canvas 170 163 1295 780 10;
#X obj 579 452 dac~;
#X obj 323 227 osc~;
#X floatatom 322 102 5 0 0 0 - - -;
#X obj 323 162 *~;
#X obj 323 196 +~;
#X floatatom 362 150 5 0 0 0 - - -;
#X floatatom 410 177 5 0 0 0 - - -;
#X obj 15 14 cnv 15 100 60 empty empty empty 20 12 0 14 -233017 -66577
0;
#X text 20 17 Soundscape Trials for Thesis Feb 11 2018;
#X obj 700 92 metro 1000;
#X obj 787 92 random 5000;
#X obj 700 125 random 100;
#X obj 700 156 / 10;
#X obj 700 194 phasor~ 10;
#X floatatom 653 169 5 0 0 0 - - -;
#X obj 790 134 random 2500;
#X msg 790 162 \$1 100;
#X obj 790 192 line;
#X obj 700 227 bp~ 500 0.95;
#X obj 323 129 osc~;
#X obj 138 347 print ERROR;
#X obj 27 314 convert.ascii2pd CR;
#N canvas 712 205 905 623 in&out 0;
#X obj 114 116 list-extend;
#X obj 191 77 sel 10;
#X msg 191 185 49 49 46 50 56 32 48 46 56 49 32 56 51 51 46 48 57 13
;
#X obj 190 157 prepend set;
#X obj 193 236 gate;
#X msg 126 209 0;
#X msg 160 207 1;
#X obj 116 30 inlet;
#X obj 198 268 outlet;
#X obj 87 80 route 10;
#X connect 0 0 3 0;
#X connect 1 0 0 1;
#X connect 1 0 6 0;
#X connect 1 0 2 0;
#X connect 1 1 5 0;
#X connect 2 0 4 1;
#X connect 3 0 2 0;
#X connect 4 0 8 0;
#X connect 5 0 4 0;
#X connect 6 0 4 0;
#X connect 7 0 1 0;
#X connect 7 0 9 0;
#X connect 9 1 0 0;
#X restore 27 277 pd in&out;
#X floatatom 29 377 5 0 0 0 - - -;
#X floatatom 74 376 5 0 0 0 - - -;
#X floatatom 123 376 5 0 0 0 - - -;
#X msg 27 211 devices;
#X obj 27 346 unpack 0 0 0;
#X obj 410 151 * 10;
#X obj 325 262 *~ 0.5;
#X obj 362 95 r dust;
#X obj 29 400 s mq2;
#X obj 74 400 s mq5;
#X obj 123 401 s dust;
#X obj 27 242 comport 4 9600;
#X obj 933 95 metro 1000;
#X obj 1020 95 random 5000;
#X obj 933 128 random 100;
#X obj 933 159 / 10;
#X obj 933 197 phasor~ 10;
#X floatatom 887 193 5 0 0 0 - - -;
#X obj 1023 137 random 2500;
#X msg 1023 165 \$1 100;
#X obj 1023 195 line;
#X obj 933 230 bp~ 500 0.95;
#X obj 322 76 r mq2;
#X obj 410 125 r mq5;
#X obj 498 230 osc~;
#X floatatom 497 75 5 0 0 0 - - -;
#X obj 498 135 *~;
#X obj 498 199 +~;
#X floatatom 538 119 5 0 0 0 - - -;
#X floatatom 585 180 5 0 0 0 - - -;
#X obj 498 102 osc~;
#X obj 585 154 * 10;
#X obj 538 62 r dust;
#X obj 497 49 r mq2;
#X obj 585 128 r mq5;
#X obj 997 436 writesf~ 2;
#X msg 997 365 open soundscape1.wav;
#X msg 1014 389 start;
#X msg 1014 413 stop;
#X msg 32 460 open innsbrook000.wav;
#X msg 101 489 start;
#X msg 100 516 stop;
#X obj 33 581 dac~ 1 2;
#X obj 32 544 readsf~ 2;
#X obj 805 442 metro 50;
#X obj 806 469 tabwrite~ oscil;
#N canvas 0 22 450 278 (subpatch) 0;
#X array oscil 100 float 3;
#A 0 0.453031 0.452911 0.452831 0.45281 0.452828 0.452897 0.453017
0.453188 0.4534 0.453672 0.453987 0.454355 0.45477 0.455244 0.455758
0.456331 0.456951 0.457628 0.458344 0.459132 0.459957 0.460838 0.461775
0.462764 0.4638 0.464896 0.466046 0.467238 0.468499 0.469803 0.471165
0.472581 0.474053 0.475574 0.477152 0.478789 0.480469 0.482217 0.484014
0.485861 0.487772 0.489731 0.491747 0.493821 0.495948 0.498127 0.500365
0.502661 0.505002 0.507408 0.509869 0.512374 0.514948 0.517572 0.520244
0.522984 0.52577 0.528608 0.531513 0.534462 0.537467 0.540534 0.543645
0.546816 0.550045 0.553316 0.556653 0.56004 0.563477 0.566972 0.570517
0.574117 0.57777 0.58147 0.585232 0.58904 0.592895 0.596815 0.600776
0.604788 0.608859 0.612969 0.617139 0.621355 0.625617 0.629937 0.634297
0.63871 0.643173 0.647674 0.652236 0.656836 0.661485 0.666182 0.670916
0.675708 0.680538 0.68541 0.690333 0.695289;
#X coords 0 1 99 -1 200 140 1;
#X restore 993 539 graph;
#X obj 805 412 tgl 15 0 empty empty empty 17 7 0 10 -262144 -1 -1 1
1;
#X obj 22 98 loadbang;
#X obj 23 124 delay 100;
#X msg 23 152 \; pd dsp 1;
#X obj 104 280 print;
#X obj 887 137 r mq5;
#X obj 538 91 / 10;
#X obj 362 122 / 5;
#X obj 700 258 *~ 0.6;
#X obj 933 261 *~ 0.6;
#X obj 887 163 * 5;
#X obj 498 257 *~ 0.4;
#X connect 1 0 29 0;
#X connect 2 0 19 0;
#X connect 3 0 4 0;
#X connect 4 0 1 0;
#X connect 5 0 3 1;
#X connect 6 0 4 1;
#X connect 9 0 11 0;
#X connect 9 0 15 0;
#X connect 9 0 10 0;
#X connect 10 0 9 1;
#X connect 11 0 12 0;
#X connect 13 0 18 0;
#X connect 14 0 13 0;
#X connect 15 0 16 0;
#X connect 16 0 17 0;
#X connect 17 0 18 1;
#X connect 18 0 78 0;
#X connect 19 0 3 0;
#X connect 21 0 27 0;
#X connect 21 2 20 0;
#X connect 22 0 21 0;
#X connect 23 0 31 0;
#X connect 24 0 32 0;
#X connect 25 0 33 0;
#X connect 26 0 34 0;
#X connect 27 0 23 0;
#X connect 27 1 24 0;
#X connect 27 2 25 0;
#X connect 28 0 6 0;
#X connect 29 0 0 0;
#X connect 29 0 0 1;
#X connect 29 0 58 0;
#X connect 29 0 58 1;
#X connect 29 0 68 0;
#X connect 30 0 77 0;
#X connect 34 0 22 0;
#X connect 35 0 37 0;
#X connect 35 0 41 0;
#X connect 35 0 36 0;
#X connect 36 0 35 1;
#X connect 37 0 38 0;
#X connect 38 0 39 0;
#X connect 39 0 44 0;
#X connect 41 0 42 0;
#X connect 42 0 43 0;
#X connect 43 0 44 1;
#X connect 44 0 79 0;
#X connect 45 0 2 0;
#X connect 46 0 28 0;
#X connect 47 0 81 0;
#X connect 48 0 53 0;
#X connect 49 0 50 0;
#X connect 50 0 47 0;
#X connect 51 0 49 1;
#X connect 52 0 50 1;
#X connect 53 0 49 0;
#X connect 54 0 52 0;
#X connect 54 0 14 0;
#X connect 55 0 76 0;
#X connect 56 0 48 0;
#X connect 57 0 54 0;
#X connect 59 0 58 0;
#X connect 60 0 58 0;
#X connect 61 0 58 0;
#X connect 62 0 66 0;
#X connect 63 0 66 0;
#X connect 64 0 66 0;
#X connect 66 0 65 0;
#X connect 66 0 65 1;
#X connect 67 0 68 0;
#X connect 70 0 67 0;
#X connect 71 0 72 0;
#X connect 72 0 73 0;
#X connect 75 0 80 0;
#X connect 76 0 51 0;
#X connect 77 0 5 0;
#X connect 78 0 0 0;
#X connect 78 0 0 1;
#X connect 78 0 58 0;
#X connect 78 0 68 0;
#X connect 79 0 0 0;
#X connect 79 0 0 1;
#X connect 79 0 58 0;
#X connect 79 0 68 0;
#X connect 80 0 40 0;
#X connect 81 0 0 0;
#X connect 81 0 0 1;
#X connect 81 0 58 0;
#X connect 81 0 58 1;
#X connect 81 0 68 0;
