#N canvas 171 261 1358 817 10;
#X obj 579 452 dac~;
#X obj 323 227 osc~;
#X floatatom 323 82 5 0 0 0 - - -;
#X floatatom 362 146 5 0 0 0 - - -;
#X floatatom 410 180 5 0 0 0 - - -;
#X obj 15 14 cnv 15 100 60 empty empty empty 20 12 0 14 -233017 -66577
0;
#X text 20 17 Soundscape Trials for Thesis Feb 11 2018;
#X obj 700 92 metro 1000;
#X obj 787 92 random 5000;
#X obj 700 199 phasor~ 10;
#X floatatom 700 174 5 0 0 0 - - -;
#X obj 790 134 random 2500;
#X msg 790 162 \$1 100;
#X obj 790 189 line;
#X obj 323 129 osc~;
#X obj 138 347 print ERROR;
#X obj 27 314 convert.ascii2pd CR;
#N canvas 712 205 905 623 in&out 0;
#X obj 114 116 list-extend;
#X obj 191 77 sel 10;
#X msg 191 185 52 46 52 49 46 48 48 13;
#X obj 190 157 prepend set;
#X obj 193 236 gate;
#X msg 126 209 0;
#X msg 160 207 1;
#X obj 116 30 inlet;
#X obj 198 268 outlet;
#X obj 87 80 route 10;
#X connect 0 0 3 0;
#X connect 1 0 0 1;
#X connect 1 0 6 0;
#X connect 1 0 2 0;
#X connect 1 1 5 0;
#X connect 2 0 4 1;
#X connect 3 0 2 0;
#X connect 4 0 8 0;
#X connect 5 0 4 0;
#X connect 6 0 4 0;
#X connect 7 0 1 0;
#X connect 7 0 9 0;
#X connect 9 1 0 0;
#X restore 27 277 pd in&out;
#X floatatom 29 377 5 0 0 0 - - -;
#X floatatom 74 376 5 0 0 0 - - -;
#X floatatom 123 376 5 0 0 0 - - -;
#X msg 27 211 devices;
#X obj 27 346 unpack 0 0 0;
#X obj 362 91 r dust;
#X obj 29 400 s mq2;
#X obj 74 400 s mq5;
#X obj 123 401 s dust;
#X obj 27 242 comport 4 9600;
#X obj 933 95 metro 1000;
#X obj 1020 95 random 5000;
#X obj 933 197 phasor~ 10;
#X floatatom 887 193 5 0 0 0 - - -;
#X obj 1023 137 random 2500;
#X msg 1023 165 \$1 100;
#X obj 1023 195 line;
#X obj 933 230 bp~ 500 0.95;
#X obj 323 56 r mq2;
#X obj 410 128 r mq5;
#X obj 498 230 osc~;
#X floatatom 497 75 5 0 0 0 - - -;
#X obj 498 135 *~;
#X obj 498 199 +~;
#X floatatom 538 119 5 0 0 0 - - -;
#X floatatom 585 183 5 0 0 0 - - -;
#X obj 498 102 osc~;
#X obj 497 49 r mq2;
#X obj 997 436 writesf~ 2;
#X msg 1014 389 start;
#X msg 1014 413 stop;
#X msg 32 499 open innsbrook000.wav;
#X msg 101 528 start;
#X msg 100 555 stop;
#X obj 33 620 dac~ 1 2;
#X obj 32 583 readsf~ 2;
#X obj 805 442 metro 50;
#X obj 806 469 tabwrite~ oscil;
#N canvas 0 22 450 278 (subpatch) 0;
#X array oscil 100 float 3;
#A 0 1.04146 1.04691 1.05222 1.05738 1.06237 1.06721 1.07187 1.07635
1.08065 1.08476 1.08867 1.09238 1.09588 1.09916 1.10222 1.10505 1.10766
1.11002 1.11215 1.11403 1.11565 1.11702 1.11813 1.11898 1.11955 1.11986
1.11989 1.11964 1.11911 1.11828 1.11718 1.11579 1.1141 1.11212 1.10984
1.10727 1.10439 1.10121 1.09774 1.09396 1.08988 1.08549 1.08081 1.07583
1.07053 1.06495 1.05906 1.05288 1.0464 1.03962 1.03256 1.0252 1.01755
1.00963 1.00142 0.992933 0.984173 0.975128 0.965841 0.956278 0.946455
0.936392 0.926066 0.915506 0.904713 0.893673 0.882425 0.870953 0.859253
0.847372 0.835278 0.822981 0.810523 0.797872 0.785044 0.772074 0.758934
0.745642 0.732231 0.718675 0.704995 0.691221 0.677329 0.663337 0.649282
0.635136 0.620916 0.606663 0.59235 0.577987 0.563624 0.549232 0.534821
0.520431 0.506053 0.491686 0.47736 0.463088 0.44886 0.434689;
#X coords 0 1 99 -1 200 140 1;
#X restore 993 539 graph;
#X obj 805 412 tgl 15 0 empty empty empty 17 7 0 10 -262144 -1 -1 1
1;
#X obj 22 98 loadbang;
#X obj 23 124 delay 100;
#X msg 23 152 \; pd dsp 1;
#X obj 104 280 print;
#X obj 538 91 / 10;
#X obj 700 258 *~ 0.6;
#X obj 933 261 *~ 0.6;
#X obj 410 154 * 5;
#X obj 323 106 * 1;
#X obj 325 262 *~ 0.9;
#X obj 498 257 *~ 0.9;
#X obj 933 69 tgl 15 0 empty empty empty 17 7 0 10 -262144 -1 -1 1
1;
#X obj 700 66 tgl 15 0 empty empty empty 17 7 0 10 -262144 -1 -1 1
1;
#X obj 585 133 r dust;
#X obj 933 143 r mq2;
#X obj 933 166 / 2;
#X msg 997 365 open icelandtrial1.wav;
#X msg 24 472 open fontainebleau02.wav \, 1;
#X obj 700 126 r mq5;
#X obj 700 152 / 5;
#X obj 323 162 +~;
#X obj 323 196 *~;
#X obj 538 63 r mq5;
#X obj 700 227 bp~ 400 0.8;
#X obj 635 52 vsl 15 128 0 127 0 0 empty empty empty 0 -9 0 10 -262144
-1 -1 900 1;
#X obj 585 157 * 1;
#X msg 295 531 start;
#X msg 294 558 stop;
#X obj 227 623 dac~ 1 2;
#X obj 226 586 readsf~ 2;
#X msg 227 499 open bagnelltrial1.wav \, 1;
#X obj 362 118 / 100;
#X connect 1 0 67 0;
#X connect 2 0 66 0;
#X connect 3 0 78 1;
#X connect 4 0 79 1;
#X connect 7 0 11 0;
#X connect 7 0 8 0;
#X connect 8 0 7 1;
#X connect 9 0 81 0;
#X connect 10 0 9 0;
#X connect 11 0 12 0;
#X connect 12 0 13 0;
#X connect 13 0 81 1;
#X connect 14 0 78 0;
#X connect 16 0 22 0;
#X connect 16 2 15 0;
#X connect 17 0 16 0;
#X connect 18 0 24 0;
#X connect 19 0 25 0;
#X connect 20 0 26 0;
#X connect 21 0 27 0;
#X connect 22 0 18 0;
#X connect 22 1 19 0;
#X connect 22 2 20 0;
#X connect 23 0 89 0;
#X connect 27 0 17 0;
#X connect 28 0 32 0;
#X connect 28 0 29 0;
#X connect 29 0 28 1;
#X connect 30 0 35 0;
#X connect 32 0 33 0;
#X connect 33 0 34 0;
#X connect 34 0 35 1;
#X connect 35 0 64 0;
#X connect 36 0 2 0;
#X connect 37 0 65 0;
#X connect 38 0 68 0;
#X connect 39 0 44 0;
#X connect 40 0 41 0;
#X connect 41 0 38 0;
#X connect 42 0 40 1;
#X connect 43 0 41 1;
#X connect 44 0 40 0;
#X connect 45 0 39 0;
#X connect 47 0 46 0;
#X connect 48 0 46 0;
#X connect 49 0 53 0;
#X connect 50 0 53 0;
#X connect 51 0 53 0;
#X connect 53 0 52 0;
#X connect 53 0 52 1;
#X connect 54 0 55 0;
#X connect 57 0 54 0;
#X connect 58 0 59 0;
#X connect 59 0 60 0;
#X connect 62 0 42 0;
#X connect 63 0 0 0;
#X connect 63 0 0 1;
#X connect 63 0 46 0;
#X connect 63 0 55 0;
#X connect 64 0 0 0;
#X connect 64 0 0 1;
#X connect 64 0 46 0;
#X connect 64 0 55 0;
#X connect 65 0 4 0;
#X connect 66 0 14 0;
#X connect 67 0 0 0;
#X connect 67 0 0 1;
#X connect 67 0 46 0;
#X connect 67 0 46 1;
#X connect 67 0 55 0;
#X connect 68 0 0 0;
#X connect 68 0 0 1;
#X connect 68 0 46 0;
#X connect 68 0 46 1;
#X connect 68 0 55 0;
#X connect 69 0 28 0;
#X connect 70 0 7 0;
#X connect 71 0 83 0;
#X connect 72 0 73 0;
#X connect 73 0 30 0;
#X connect 73 0 31 0;
#X connect 74 0 46 0;
#X connect 75 0 53 0;
#X connect 76 0 77 0;
#X connect 77 0 10 0;
#X connect 78 0 79 0;
#X connect 79 0 1 0;
#X connect 80 0 62 0;
#X connect 81 0 63 0;
#X connect 83 0 43 0;
#X connect 84 0 87 0;
#X connect 85 0 87 0;
#X connect 87 0 86 1;
#X connect 88 0 87 0;
#X connect 89 0 3 0;
