#N canvas 404 125 1358 817 10;
#X obj 579 452 dac~;
#X obj 323 227 osc~;
#X floatatom 323 82 5 0 0 0 - - -;
#X floatatom 362 146 5 0 0 0 - - -;
#X floatatom 410 180 5 0 0 0 - - -;
#X obj 15 14 cnv 15 100 60 empty empty empty 20 12 0 14 -233017 -66577
0;
#X text 20 17 Soundscape Trials for Thesis Feb 11 2018;
#X obj 700 92 metro 1000;
#X obj 787 92 random 5000;
#X obj 700 199 phasor~ 10;
#X floatatom 700 174 5 0 0 0 - - -;
#X obj 790 134 random 2500;
#X msg 790 162 \$1 100;
#X obj 790 189 line;
#X obj 323 129 osc~;
#X obj 138 347 print ERROR;
#X floatatom 29 377 5 0 0 0 - - -;
#X floatatom 74 376 5 0 0 0 - - -;
#X floatatom 123 376 5 0 0 0 - - -;
#X obj 27 346 unpack 0 0 0;
#X obj 361 71 r dust;
#X obj 29 400 s mq2;
#X obj 74 400 s mq5;
#X obj 123 401 s dust;
#X obj 933 95 metro 1000;
#X obj 1020 95 random 5000;
#X obj 933 197 phasor~ 10;
#X floatatom 887 193 5 0 0 0 - - -;
#X obj 1023 137 random 2500;
#X msg 1023 165 \$1 100;
#X obj 1023 195 line;
#X obj 933 230 bp~ 500 0.95;
#X obj 323 56 r mq2;
#X obj 410 128 r mq5;
#X obj 498 230 osc~;
#X floatatom 497 75 5 0 0 0 - - -;
#X obj 498 135 *~;
#X obj 498 199 +~;
#X floatatom 538 119 5 0 0 0 - - -;
#X floatatom 585 183 5 0 0 0 - - -;
#X obj 498 102 osc~;
#X obj 497 49 r mq2;
#X obj 997 436 writesf~ 2;
#X msg 1014 389 start;
#X msg 1014 413 stop;
#X obj 805 442 metro 50;
#X obj 806 469 tabwrite~ oscil;
#N canvas 0 22 450 278 (subpatch) 0;
#X array oscil 100 float 3;
#A 0 3.22737 3.22543 3.2232 3.22068 3.2179 3.21481 3.21143 3.20779
3.20385 3.19962 3.19513 3.19034 3.18526 3.17993 3.1743 3.16838 3.16221
3.15574 3.149 3.14199 3.1347 3.12715 3.11931 3.1112 3.10285 3.0942
3.0853 3.07615 3.06672 3.05702 3.04709 3.03689 3.02642 3.01573 3.00478
2.99356 2.98212 2.97043 2.95849 2.94632 2.93391 2.92127 2.9084 2.89529
2.88197 2.86842 2.85464 2.84066 2.82646 2.81203 2.79741 2.78259 2.76754
2.75232 2.7369 2.72127 2.70546 2.68948 2.67328 2.65692 2.6404 2.62368
2.60679 2.58976 2.57255 2.55518 2.53767 2.52 2.50217 2.48422 2.46611
2.44787 2.42951 2.41101 2.39239 2.37365 2.35478 2.33582 2.31674 2.29755
2.27828 2.2589 2.23942 2.21987 2.20023 2.1805 2.16071 2.14085 2.12091
2.10091 2.08086 2.06075 2.0406 2.02039 2.00015 1.97987 1.95956 1.93922
1.91886 1.89847;
#X coords 0 1 99 -1 200 140 1;
#X restore 993 539 graph;
#X obj 805 412 tgl 15 0 empty empty empty 17 7 0 10 -262144 -1 -1 0
1;
#X obj 22 98 loadbang;
#X obj 23 124 delay 100;
#X msg 23 152 \; pd dsp 1;
#X obj 538 91 / 10;
#X obj 700 258 *~ 0.6;
#X obj 933 261 *~ 0.6;
#X obj 410 154 * 5;
#X obj 323 106 * 1;
#X obj 325 262 *~ 0.9;
#X obj 498 257 *~ 0.9;
#X obj 586 110 r dust;
#X obj 933 143 r mq2;
#X obj 933 166 / 2;
#X obj 700 126 r mq5;
#X obj 700 152 / 5;
#X obj 323 162 +~;
#X obj 323 196 *~;
#X obj 538 63 r mq5;
#X obj 700 227 bp~ 400 0.8;
#X obj 362 118 / 100;
#X floatatom 361 96 5 0 0 0 - - -;
#X floatatom 584 132 5 0 0 0 - - -;
#X obj 585 157 * 3;
#X msg 997 365 open paristrial1.wav;
#X obj 704 51 loadbang;
#X obj 944 53 loadbang;
#X msg 31 233 devices;
#X obj 31 263 comport 1 57600;
#X obj 31 297 cyclone/match 253 254 nn nn 255;
#X connect 1 0 57 0;
#X connect 2 0 56 0;
#X connect 3 0 64 1;
#X connect 4 0 65 1;
#X connect 7 0 11 0;
#X connect 7 0 8 0;
#X connect 8 0 7 1;
#X connect 9 0 67 0;
#X connect 10 0 9 0;
#X connect 11 0 12 0;
#X connect 12 0 13 0;
#X connect 13 0 67 1;
#X connect 14 0 64 0;
#X connect 16 0 21 0;
#X connect 17 0 22 0;
#X connect 18 0 23 0;
#X connect 19 0 16 0;
#X connect 19 1 17 0;
#X connect 19 2 18 0;
#X connect 20 0 69 0;
#X connect 24 0 28 0;
#X connect 24 0 25 0;
#X connect 25 0 24 1;
#X connect 26 0 31 0;
#X connect 28 0 29 0;
#X connect 29 0 30 0;
#X connect 30 0 31 1;
#X connect 31 0 54 0;
#X connect 32 0 2 0;
#X connect 33 0 55 0;
#X connect 34 0 58 0;
#X connect 35 0 40 0;
#X connect 36 0 37 0;
#X connect 37 0 34 0;
#X connect 38 0 36 1;
#X connect 39 0 37 1;
#X connect 40 0 36 0;
#X connect 41 0 35 0;
#X connect 43 0 42 0;
#X connect 44 0 42 0;
#X connect 45 0 46 0;
#X connect 48 0 45 0;
#X connect 49 0 50 0;
#X connect 50 0 51 0;
#X connect 52 0 38 0;
#X connect 53 0 0 0;
#X connect 53 0 0 1;
#X connect 53 0 42 0;
#X connect 53 0 46 0;
#X connect 54 0 0 0;
#X connect 54 0 0 1;
#X connect 54 0 42 0;
#X connect 54 0 46 0;
#X connect 55 0 4 0;
#X connect 56 0 14 0;
#X connect 57 0 0 0;
#X connect 57 0 0 1;
#X connect 57 0 42 0;
#X connect 57 0 42 1;
#X connect 57 0 46 0;
#X connect 58 0 0 0;
#X connect 58 0 0 1;
#X connect 58 0 42 0;
#X connect 58 0 42 1;
#X connect 58 0 46 0;
#X connect 59 0 70 0;
#X connect 60 0 61 0;
#X connect 61 0 26 0;
#X connect 61 0 27 0;
#X connect 62 0 63 0;
#X connect 63 0 10 0;
#X connect 64 0 65 0;
#X connect 65 0 1 0;
#X connect 66 0 52 0;
#X connect 67 0 53 0;
#X connect 68 0 3 0;
#X connect 69 0 68 0;
#X connect 70 0 71 0;
#X connect 71 0 39 0;
#X connect 72 0 42 0;
#X connect 73 0 7 0;
#X connect 74 0 24 0;
#X connect 75 0 76 0;
#X connect 76 0 77 0;
#X connect 77 0 19 0;
#X connect 77 0 15 0;
