#N canvas 93 131 1008 758 10;
#X obj -279 302 print ERROR;
#X obj -390 269 convert.ascii2pd CR;
#N canvas 712 205 905 623 in&out 0;
#X obj 114 116 list-extend;
#X obj 191 77 sel 10;
#X msg 191 185 49 49 46 50 56 32 48 46 55 54 32 56 50 50 46 51 52 13
;
#X obj 190 157 prepend set;
#X obj 193 236 gate;
#X msg 126 209 0;
#X msg 160 207 1;
#X obj 116 30 inlet;
#X obj 198 268 outlet;
#X obj 87 80 route 10;
#X connect 0 0 3 0;
#X connect 1 0 0 1;
#X connect 1 0 6 0;
#X connect 1 0 2 0;
#X connect 1 1 5 0;
#X connect 2 0 4 1;
#X connect 3 0 2 0;
#X connect 4 0 8 0;
#X connect 5 0 4 0;
#X connect 6 0 4 0;
#X connect 7 0 1 0;
#X connect 7 0 9 0;
#X connect 9 1 0 0;
#X restore -390 232 pd in&out;
#X floatatom -388 332 5 0 0 0 - - -;
#X floatatom -317 333 5 0 0 0 - - -;
#X floatatom -245 331 5 0 0 0 - - -;
#X msg -390 166 devices;
#X obj -390 301 unpack 0 0 0;
#X obj -388 383 s mq2;
#X obj -317 383 s mq5;
#X obj -232 436 s dust;
#X obj -390 197 comport 4 9600;
#X obj 298 410 r dust;
#X obj 366 405 r mq5;
#X obj -392 692 writesf~ 2;
#X msg -392 621 open soundscape1.wav;
#X msg -375 645 start;
#X msg -375 669 stop;
#X msg -322 495 start;
#X msg -323 522 stop;
#X obj -390 587 dac~ 1 2;
#X obj -391 550 readsf~ 2;
#X msg -391 111 \; pd dsp \$1;
#X obj -391 83 tgl 15 0 empty empty empty 17 7 0 10 -262144 -1 -1 0
1;
#N canvas 0 22 450 278 (subpatch) 0;
#X array oscil 100 float 3;
#A 0 0 0 0 0 0 0 0 0 0 0 0 0 0 0 0 0 0 0 0 0 0 0 0 0 0 0 0 0 0 0 0
0 0 0 0 0 0 0 0 0 0 0 0 0 0 0 0 0 0 0 0 0 0 0 0 0 0 0 0 0 0 0 0 0 0
0 0 0 0 0 0 0 0 0 0 0 0 0 0 0 0 0 0 0 0 0 0 0 0 0 0 0 0 0 0 0 0 0 0
0;
#X coords 0 1 99 -1 200 140 1;
#X restore 398 28 graph;
#X msg -391 466 open soundfile.wav;
#N canvas 422 22 568 444 field 1;
#X obj 31 110 r mq2;
#X obj 31 252 bp~ 0 50;
#X obj 53 181 random 1000;
#X obj 53 204 + 200;
#X floatatom 53 229 5 0 0 0 - - -;
#X obj 53 147 bng 15 250 50 0 empty empty empty 17 7 0 10 -262144 -1
-1;
#X obj 229 0 inlet;
#X obj 189 114 r mq2;
#X obj 189 256 bp~ 0 50;
#X obj 211 185 random 1000;
#X obj 211 208 + 200;
#X floatatom 211 233 5 0 0 0 - - -;
#X obj 211 151 bng 15 250 50 0 empty empty empty 17 7 0 10 -262144
-1 -1;
#X obj 333 110 r mq2;
#X obj 333 252 bp~ 0 50;
#X obj 355 181 random 1000;
#X obj 355 204 + 200;
#X floatatom 355 229 5 0 0 0 - - -;
#X obj 355 147 bng 15 250 50 0 empty empty empty 17 7 0 10 -262144
-1 -1;
#X obj 459 116 r mq2;
#X obj 459 258 bp~ 0 50;
#X obj 481 187 random 1000;
#X obj 481 210 + 200;
#X floatatom 481 235 5 0 0 0 - - -;
#X obj 481 153 bng 15 250 50 0 empty empty empty 17 7 0 10 -262144
-1 -1;
#X obj 226 391 outlet~;
#X obj 232 340 *~;
#X obj 321 333 inlet;
#X obj 234 366 osc~;
#X connect 0 0 1 0;
#X connect 1 0 26 0;
#X connect 2 0 3 0;
#X connect 3 0 4 0;
#X connect 4 0 1 1;
#X connect 5 0 2 0;
#X connect 6 0 5 0;
#X connect 6 0 12 0;
#X connect 6 0 18 0;
#X connect 6 0 24 0;
#X connect 7 0 8 0;
#X connect 8 0 26 0;
#X connect 9 0 10 0;
#X connect 10 0 11 0;
#X connect 11 0 8 1;
#X connect 12 0 9 0;
#X connect 13 0 14 0;
#X connect 14 0 26 0;
#X connect 15 0 16 0;
#X connect 16 0 17 0;
#X connect 17 0 14 1;
#X connect 18 0 15 0;
#X connect 19 0 20 0;
#X connect 20 0 26 0;
#X connect 21 0 22 0;
#X connect 22 0 23 0;
#X connect 23 0 20 1;
#X connect 24 0 21 0;
#X connect 26 0 28 0;
#X connect 27 0 26 1;
#X connect 28 0 25 0;
#X restore -52 501 pd field;
#X obj -52 468 tgl 15 0 empty empty empty 17 7 0 10 -262144 -1 -1 1
1;
#X obj -260 84 tgl 15 0 empty empty empty 17 7 0 10 -262144 -1 -1 0
1;
#N canvas 1220 79 450 462 mq5sound 0;
#X obj 18 31 r mq5;
#X obj 18 65 * 5;
#X obj 18 98 *~ 0.7;
#X obj 18 129 osc~;
#X obj 150 231 /~ 2;
#X obj 94 32 r mq5;
#X obj 94 130 osc~;
#X obj 179 28 r mq5;
#X obj 179 126 osc~;
#X obj 263 30 r mq5;
#X obj 263 128 osc~;
#X obj 221 204 inlet;
#X obj 150 268 *~;
#X obj 150 306 outlet~;
#X obj 179 95 *~ 0.7;
#X obj 94 99 *~ 0.7;
#X obj 94 66 * 10;
#X obj 179 62 * 15;
#X obj 263 64 * 10;
#X obj 263 97 /~ 6.2832;
#X connect 0 0 1 0;
#X connect 1 0 2 0;
#X connect 2 0 3 0;
#X connect 3 0 4 0;
#X connect 4 0 12 0;
#X connect 5 0 16 0;
#X connect 6 0 4 0;
#X connect 7 0 17 0;
#X connect 8 0 4 0;
#X connect 9 0 18 0;
#X connect 10 0 4 0;
#X connect 11 0 12 1;
#X connect 12 0 13 0;
#X connect 14 0 8 0;
#X connect 15 0 6 0;
#X connect 16 0 15 0;
#X connect 17 0 14 0;
#X connect 18 0 19 0;
#X connect 19 0 10 0;
#X restore -260 114 pd mq5sound;
#X obj 28 49 r dust;
#X obj 82 51 r mq5;
#X obj -317 356 average 10;
#X obj -245 355 average 10;
#X obj -388 357 average 10;
#X obj 134 53 r mq2;
#X obj 276 226 diy-beat;
#X text -392 1 Soundscape Trials for Thesis April 2018;
#N canvas 578 253 848 323 serialinput 0;
#X obj -171 160 print ERROR;
#X obj -282 127 convert.ascii2pd CR;
#N canvas 712 205 905 623 in&out 0;
#X obj 114 116 list-extend;
#X obj 191 77 sel 10;
#X msg 191 185 49 49 46 50 56 32 48 46 55 54 32 56 50 50 46 51 52 13
;
#X obj 190 157 prepend set;
#X obj 193 236 gate;
#X msg 126 209 0;
#X msg 160 207 1;
#X obj 116 30 inlet;
#X obj 198 268 outlet;
#X obj 87 80 route 10;
#X connect 0 0 3 0;
#X connect 1 0 0 1;
#X connect 1 0 6 0;
#X connect 1 0 2 0;
#X connect 1 1 5 0;
#X connect 2 0 4 1;
#X connect 3 0 2 0;
#X connect 4 0 8 0;
#X connect 5 0 4 0;
#X connect 6 0 4 0;
#X connect 7 0 1 0;
#X connect 7 0 9 0;
#X connect 9 1 0 0;
#X restore -282 90 pd in&out;
#X floatatom -280 190 5 0 0 0 - - -;
#X floatatom -209 189 5 0 0 0 - - -;
#X floatatom -137 189 5 0 0 0 - - -;
#X msg -282 24 devices;
#X obj -282 159 unpack 0 0 0;
#X obj -280 241 s mq2;
#X obj -209 241 s mq5;
#X obj -137 241 s dust;
#X obj -282 55 comport 4 9600;
#X obj -209 214 average 10;
#X obj -137 213 average 10;
#X obj -280 215 average 10;
#X connect 1 0 7 0;
#X connect 1 2 0 0;
#X connect 2 0 1 0;
#X connect 3 0 14 0;
#X connect 4 0 12 0;
#X connect 5 0 13 0;
#X connect 6 0 11 0;
#X connect 7 0 3 0;
#X connect 7 1 4 0;
#X connect 7 2 5 0;
#X connect 11 0 2 0;
#X connect 12 0 9 0;
#X connect 13 0 10 0;
#X connect 14 0 8 0;
#X restore -260 59 pd serialinput;
#X obj -227 673 metro 50;
#X obj -226 700 tabwrite~ oscil;
#X obj -227 643 tgl 15 0 empty empty empty 17 7 0 10 -262144 -1 -1
0 1;
#X obj -152 348 m_mavg;
#X floatatom -151 382 5 0 0 0 - - -;
#X obj -233 377 m_atodb;
#X floatatom -231 408 5 0 0 0 - - -;
#X obj -288 408 m_atodb;
#X floatatom -286 439 5 0 0 0 - - -;
#X obj -56 350 soundoutput;
#X obj -52 544 soundoutput;
#X obj 51 201 soundoutput;
#X floatatom 51 88 5 0 0 0 - - -;
#X obj 51 114 osc~ 440;
#X obj 180 75 g_hsl drive 0 1;
#X obj 180 106 g_hsl dry 0 1;
#X obj 51 142 e_powdist mydistortion;
#X obj -56 253 bng 15 250 50 0 empty empty empty 17 7 0 10 -262144
-1 -1;
#X obj 295 541 soundoutput;
#N canvas 469 307 1065 605 try 1;
#X obj 83 112 mtof;
#X obj 93 148 osc~;
#X obj 112 189 *~;
#X obj 187 55 phasor~ 0.3;
#X obj 192 109 min~;
#X obj 265 80 pink~;
#X obj 201 148 lop~ 40;
#X obj 254 220 min~;
#X obj 325 395 *~ 0.1;
#X obj 385 394 *~ 0.1;
#X obj 266 263 delwrite~ tbt 200;
#X obj 415 104 mtof;
#X obj 425 144 osc~;
#X obj 531 144 min~;
#X obj 604 115 pink~;
#X obj 540 183 lop~ 40;
#X obj 513 89 phasor~ 0.2;
#X obj 478 218 *~;
#X obj 585 263 delread~ tbt 120;
#X obj 588 315 delread~ tbt 200;
#X obj 72 63 inlet;
#X obj 422 58 inlet;
#X obj 424 525 outlet~;
#X obj 584 376 *~;
#X obj 639 189 lop~ 40;
#X obj 586 405 *~ 0.8;
#X obj 781 240 mtof;
#X obj 791 276 osc~;
#X obj 796 348 *~;
#X obj 770 191 inlet;
#X obj 615 469 *~ 0.1;
#X obj 869 256 min~;
#X obj 942 227 pink~;
#X obj 878 295 lop~ 40;
#X obj 694 419 min~;
#X obj 864 202 phasor~ 0.4;
#X connect 0 0 1 0;
#X connect 1 0 2 0;
#X connect 1 0 7 0;
#X connect 2 0 8 0;
#X connect 3 0 4 0;
#X connect 3 0 7 0;
#X connect 4 0 6 0;
#X connect 5 0 4 1;
#X connect 6 0 2 1;
#X connect 7 0 10 0;
#X connect 8 0 22 0;
#X connect 9 0 22 0;
#X connect 11 0 12 0;
#X connect 12 0 17 0;
#X connect 12 0 7 1;
#X connect 13 0 15 0;
#X connect 14 0 13 1;
#X connect 15 0 23 1;
#X connect 15 0 17 1;
#X connect 16 0 13 0;
#X connect 16 0 24 0;
#X connect 17 0 9 0;
#X connect 18 0 8 0;
#X connect 19 0 9 0;
#X connect 20 0 0 0;
#X connect 21 0 11 0;
#X connect 23 0 25 0;
#X connect 24 0 25 0;
#X connect 25 0 10 0;
#X connect 26 0 27 0;
#X connect 27 0 28 0;
#X connect 28 0 34 0;
#X connect 29 0 26 0;
#X connect 30 0 22 0;
#X connect 31 0 33 0;
#X connect 32 0 31 1;
#X connect 33 0 28 1;
#X connect 34 0 30 0;
#X connect 35 0 31 0;
#X restore 322 446 pd try;
#X obj 286 500 *~ 1.2;
#X obj 377 496 *~ 1.2;
#X floatatom 524 266 5 0 0 0 - - -;
#X obj -181 634 cycle~;
#N canvas 369 266 475 482 geiger 0;
#X obj 121 88 random 5000;
#X obj 34 195 phasor~ 10;
#X floatatom 34 170 5 0 0 0 - - -;
#X obj 124 130 random 2500;
#X msg 124 158 \$1 100;
#X obj 124 185 line;
#X obj 354 91 random 5000;
#X obj 267 193 phasor~ 10;
#X floatatom 221 189 5 0 0 0 - - -;
#X obj 357 133 random 2500;
#X msg 357 161 \$1 100;
#X obj 357 191 line;
#X obj 267 226 bp~ 500 0.95;
#X obj 34 254 *~ 0.6;
#X obj 267 257 *~ 0.6;
#X obj 267 139 r mq2;
#X obj 267 162 / 2;
#X obj 34 122 r mq5;
#X obj 34 148 / 5;
#X obj 34 223 bp~ 400 0.8;
#X obj 101 25 inlet;
#X obj 122 339 outlet~;
#X obj 34 88 metro 1000;
#X obj 267 91 metro 1000;
#X connect 0 0 22 1;
#X connect 1 0 19 0;
#X connect 2 0 1 0;
#X connect 3 0 4 0;
#X connect 4 0 5 0;
#X connect 5 0 19 1;
#X connect 6 0 23 1;
#X connect 7 0 12 0;
#X connect 9 0 10 0;
#X connect 10 0 11 0;
#X connect 11 0 12 1;
#X connect 12 0 14 0;
#X connect 13 0 21 0;
#X connect 14 0 21 0;
#X connect 15 0 16 0;
#X connect 16 0 7 0;
#X connect 16 0 8 0;
#X connect 17 0 18 0;
#X connect 18 0 2 0;
#X connect 19 0 13 0;
#X connect 20 0 22 0;
#X connect 20 0 23 0;
#X connect 22 0 3 0;
#X connect 22 0 0 0;
#X connect 23 0 9 0;
#X connect 23 0 6 0;
#X restore -55 288 pd geiger;
#X obj 280 188 r dust;
#X obj 365 189 r mq5;
#X obj 279 288 soundoutput;
#X connect 1 0 7 0;
#X connect 1 2 0 0;
#X connect 2 0 1 0;
#X connect 3 0 34 0;
#X connect 4 0 32 0;
#X connect 5 0 42 0;
#X connect 5 0 33 0;
#X connect 6 0 11 0;
#X connect 7 0 3 0;
#X connect 7 1 4 0;
#X connect 7 2 5 0;
#X connect 11 0 2 0;
#X connect 12 0 58 0;
#X connect 13 0 58 1;
#X connect 15 0 14 0;
#X connect 16 0 14 0;
#X connect 17 0 14 0;
#X connect 18 0 21 0;
#X connect 19 0 21 0;
#X connect 21 0 20 0;
#X connect 21 0 20 1;
#X connect 23 0 22 0;
#X connect 25 0 21 0;
#X connect 26 0 49 0;
#X connect 26 0 49 1;
#X connect 27 0 26 0;
#X connect 28 0 29 0;
#X connect 30 0 51 0;
#X connect 31 0 53 0;
#X connect 32 0 46 0;
#X connect 32 0 9 0;
#X connect 33 0 44 0;
#X connect 34 0 8 0;
#X connect 35 0 54 0;
#X connect 36 0 66 0;
#X connect 36 1 66 1;
#X connect 39 0 40 0;
#X connect 41 0 39 0;
#X connect 42 0 43 0;
#X connect 44 0 45 0;
#X connect 45 0 10 0;
#X connect 46 0 47 0;
#X connect 51 0 52 0;
#X connect 52 0 55 0;
#X connect 53 0 54 0;
#X connect 54 0 55 1;
#X connect 55 0 50 0;
#X connect 55 0 50 1;
#X connect 56 0 63 0;
#X connect 58 0 59 0;
#X connect 58 0 60 0;
#X connect 59 0 57 0;
#X connect 60 0 57 1;
#X connect 63 0 48 0;
#X connect 63 0 48 1;
#X connect 64 0 36 0;
#X connect 65 0 36 1;
