#N canvas 236 259 1015 691 10;
#X obj -263 213 print ERROR;
#X obj -374 180 convert.ascii2pd CR;
#N canvas 712 205 905 623 in&out 0;
#X obj 114 116 list-extend;
#X obj 191 77 sel 10;
#X msg 191 185 49 49 46 50 56 32 48 46 55 54 32 56 50 50 46 51 52 13
;
#X obj 190 157 prepend set;
#X obj 193 236 gate;
#X msg 126 209 0;
#X msg 160 207 1;
#X obj 116 30 inlet;
#X obj 198 268 outlet;
#X obj 87 80 route 10;
#X connect 0 0 3 0;
#X connect 1 0 0 1;
#X connect 1 0 6 0;
#X connect 1 0 2 0;
#X connect 1 1 5 0;
#X connect 2 0 4 1;
#X connect 3 0 2 0;
#X connect 4 0 8 0;
#X connect 5 0 4 0;
#X connect 6 0 4 0;
#X connect 7 0 1 0;
#X connect 7 0 9 0;
#X connect 9 1 0 0;
#X restore -374 143 pd in&out;
#X floatatom -372 243 5 0 0 0 - - -;
#X floatatom -301 244 5 0 0 0 - - -;
#X floatatom -230 241 5 0 0 0 - - -;
#X msg -374 77 devices;
#X obj -374 212 unpack 0 0 0;
#X obj -372 334 s mq2;
#X obj -301 294 s mq5;
#X obj -216 347 s dust;
#X obj -374 108 comport 4 9600;
#X msg 172 513 stop;
#X msg -306 458 start;
#X msg -307 485 stop;
#X obj -374 550 dac~ 1 2;
#X obj -375 513 readsf~ 2;
#X msg -375 22 \; pd dsp \$1;
#X obj -375 -6 tgl 15 0 empty empty empty 17 7 0 10 -262144 -1 -1 0
1;
#N canvas 1151 24 568 444 field 0;
#X obj 31 110 r mq2;
#X obj 31 252 bp~ 0 50;
#X obj 53 181 random 1000;
#X obj 53 204 + 200;
#X floatatom 53 229 5 0 0 0 - - -;
#X obj 53 147 bng 15 250 50 0 empty empty empty 17 7 0 10 -262144 -1
-1;
#X obj 229 0 inlet;
#X obj 189 114 r mq2;
#X obj 189 256 bp~ 0 50;
#X obj 211 185 random 1000;
#X obj 211 208 + 200;
#X floatatom 211 233 5 0 0 0 - - -;
#X obj 211 151 bng 15 250 50 0 empty empty empty 17 7 0 10 -262144
-1 -1;
#X obj 333 110 r mq2;
#X obj 333 252 bp~ 0 50;
#X obj 355 181 random 1000;
#X obj 355 204 + 200;
#X floatatom 355 229 5 0 0 0 - - -;
#X obj 355 147 bng 15 250 50 0 empty empty empty 17 7 0 10 -262144
-1 -1;
#X obj 459 116 r mq2;
#X obj 459 258 bp~ 0 50;
#X obj 481 187 random 1000;
#X obj 481 210 + 200;
#X floatatom 481 235 5 0 0 0 - - -;
#X obj 481 153 bng 15 250 50 0 empty empty empty 17 7 0 10 -262144
-1 -1;
#X obj 226 391 outlet~;
#X obj 232 340 *~;
#X obj 321 333 inlet;
#X obj 234 366 osc~;
#X connect 0 0 1 0;
#X connect 1 0 26 0;
#X connect 2 0 3 0;
#X connect 3 0 4 0;
#X connect 4 0 1 1;
#X connect 5 0 2 0;
#X connect 6 0 5 0;
#X connect 6 0 12 0;
#X connect 6 0 18 0;
#X connect 6 0 24 0;
#X connect 7 0 8 0;
#X connect 8 0 26 0;
#X connect 9 0 10 0;
#X connect 10 0 11 0;
#X connect 11 0 8 1;
#X connect 12 0 9 0;
#X connect 13 0 14 0;
#X connect 14 0 26 0;
#X connect 15 0 16 0;
#X connect 16 0 17 0;
#X connect 17 0 14 1;
#X connect 18 0 15 0;
#X connect 19 0 20 0;
#X connect 20 0 26 0;
#X connect 21 0 22 0;
#X connect 22 0 23 0;
#X connect 23 0 20 1;
#X connect 24 0 21 0;
#X connect 26 0 28 0;
#X connect 27 0 26 1;
#X connect 28 0 25 0;
#X restore -236 68 pd field;
#X obj -236 35 tgl 15 0 empty empty empty 17 7 0 10 -262144 -1 -1 1
1;
#X obj 65 -13 r dust;
#X obj 193 -45 r mq5;
#X obj -301 267 average 10;
#X obj -229 266 average 10;
#N canvas 578 253 848 323 serialinput 0;
#X obj -171 160 print ERROR;
#X obj -282 127 convert.ascii2pd CR;
#N canvas 712 205 905 623 in&out 0;
#X obj 114 116 list-extend;
#X obj 191 77 sel 10;
#X msg 191 185 49 49 46 50 56 32 48 46 55 54 32 56 50 50 46 51 52 13
;
#X obj 190 157 prepend set;
#X obj 193 236 gate;
#X msg 126 209 0;
#X msg 160 207 1;
#X obj 116 30 inlet;
#X obj 198 268 outlet;
#X obj 87 80 route 10;
#X connect 0 0 3 0;
#X connect 1 0 0 1;
#X connect 1 0 6 0;
#X connect 1 0 2 0;
#X connect 1 1 5 0;
#X connect 2 0 4 1;
#X connect 3 0 2 0;
#X connect 4 0 8 0;
#X connect 5 0 4 0;
#X connect 6 0 4 0;
#X connect 7 0 1 0;
#X connect 7 0 9 0;
#X connect 9 1 0 0;
#X restore -282 90 pd in&out;
#X floatatom -280 190 5 0 0 0 - - -;
#X floatatom -209 189 5 0 0 0 - - -;
#X floatatom -137 189 5 0 0 0 - - -;
#X msg -282 24 devices;
#X obj -282 159 unpack 0 0 0;
#X obj -280 241 s mq2;
#X obj -209 241 s mq5;
#X obj -137 241 s dust;
#X obj -282 55 comport 4 9600;
#X obj -209 214 average 10;
#X obj -137 213 average 10;
#X obj -280 215 average 10;
#X connect 1 0 7 0;
#X connect 1 2 0 0;
#X connect 2 0 1 0;
#X connect 3 0 14 0;
#X connect 4 0 12 0;
#X connect 5 0 13 0;
#X connect 6 0 11 0;
#X connect 7 0 3 0;
#X connect 7 1 4 0;
#X connect 7 2 5 0;
#X connect 11 0 2 0;
#X connect 12 0 9 0;
#X connect 13 0 10 0;
#X connect 14 0 8 0;
#X restore -375 589 pd serialinput;
#X obj -217 288 m_atodb;
#X floatatom -215 319 5 0 0 0 - - -;
#X obj -331 318 m_atodb;
#X floatatom -329 349 5 0 0 0 - - -;
#X floatatom 65 16 5 0 0 0 - - -;
#X obj 65 42 osc~ 440;
#X obj 193 -22 g_hsl drive 0 1;
#X obj 193 9 g_hsl dry 0 1;
#X obj 65 77 e_powdist mydistortion;
#X obj -115 174 bng 15 250 50 0 empty empty empty 17 7 0 10 -262144
-1 -1;
#N canvas 77 74 1065 605 try 0;
#X obj 60 87 mtof;
#X obj 99 189 osc~;
#X obj 118 230 *~;
#X obj 187 55 phasor~ 0.3;
#X obj 192 109 min~;
#X obj 265 80 pink~;
#X obj 201 148 lop~ 40;
#X obj 254 220 min~;
#X obj 325 395 *~ 0.1;
#X obj 385 394 *~ 0.1;
#X obj 266 263 delwrite~ tbt 200;
#X obj 413 71 mtof;
#X obj 425 144 osc~;
#X obj 531 144 min~;
#X obj 604 115 pink~;
#X obj 540 183 lop~ 40;
#X obj 513 89 phasor~ 0.2;
#X obj 478 218 *~;
#X obj 585 263 delread~ tbt 120;
#X obj 588 315 delread~ tbt 200;
#X obj 72 63 inlet;
#X obj 422 44 inlet;
#X obj 584 376 *~;
#X obj 639 189 lop~ 40;
#X obj 586 405 *~ 0.8;
#X obj 791 276 osc~;
#X obj 796 348 *~;
#X obj 765 120 inlet;
#X obj 615 469 *~ 0.1;
#X obj 869 256 min~;
#X obj 942 227 pink~;
#X obj 878 295 lop~ 40;
#X obj 694 419 min~;
#X obj 864 202 phasor~ 0.4;
#X msg 221 18 0.3;
#X obj 129 4 r mq2;
#X obj 424 525 outlet~;
#X obj 813 225 line~;
#X msg 783 197 \$1 200;
#X obj 843 65 r dust2;
#X obj 750 165 mtof;
#X obj 407 124 line~;
#X msg 406 102 \$1 200;
#X obj 859 104 mtof;
#X connect 0 0 1 0;
#X connect 1 0 2 0;
#X connect 1 0 7 0;
#X connect 2 0 8 0;
#X connect 3 0 4 0;
#X connect 3 0 7 0;
#X connect 4 0 6 0;
#X connect 5 0 4 1;
#X connect 6 0 2 1;
#X connect 7 0 10 0;
#X connect 8 0 36 0;
#X connect 9 0 36 0;
#X connect 11 0 42 0;
#X connect 12 0 17 0;
#X connect 12 0 7 1;
#X connect 13 0 15 0;
#X connect 14 0 13 1;
#X connect 15 0 22 1;
#X connect 15 0 17 1;
#X connect 16 0 13 0;
#X connect 16 0 23 0;
#X connect 17 0 9 0;
#X connect 18 0 8 0;
#X connect 19 0 9 0;
#X connect 20 0 0 0;
#X connect 21 0 11 0;
#X connect 22 0 24 0;
#X connect 23 0 24 0;
#X connect 24 0 10 0;
#X connect 25 0 26 0;
#X connect 26 0 32 0;
#X connect 27 0 40 0;
#X connect 28 0 36 0;
#X connect 29 0 31 0;
#X connect 30 0 29 1;
#X connect 31 0 26 1;
#X connect 32 0 28 0;
#X connect 33 0 29 0;
#X connect 34 0 3 0;
#X connect 35 0 3 0;
#X connect 37 0 25 0;
#X connect 38 0 37 0;
#X connect 39 0 43 0;
#X connect 40 0 38 0;
#X connect 41 0 12 0;
#X connect 42 0 41 0;
#X connect 43 0 33 0;
#X restore 183 246 pd try;
#N canvas 92 95 475 482 geiger 1;
#X obj 121 88 random 5000;
#X obj 30 185 phasor~ 10;
#X obj 124 130 random 2500;
#X obj 354 91 random 5000;
#X obj 266 218 phasor~ 10;
#X obj 357 133 random 2500;
#X msg 357 161 \$1 100;
#X obj 357 191 line;
#X obj 266 251 bp~ 500 0.95;
#X obj 33 262 *~ 0.6;
#X obj 266 282 *~ 0.6;
#X obj 267 139 r mq2;
#X obj 267 162 / 2;
#X obj 34 122 r mq5;
#X obj 34 148 / 5;
#X obj 33 231 bp~ 400 0.8;
#X obj 101 25 inlet;
#X obj 122 339 outlet~;
#X obj 34 88 metro 1000;
#X obj 267 91 metro 1000;
#X floatatom 217 188 5 0 0 0 - - -;
#X floatatom -14 163 5 0 0 0 - - -;
#X obj 124 185 line;
#X msg 124 158 \$1 100;
#X connect 0 0 18 1;
#X connect 1 0 15 0;
#X connect 2 0 23 0;
#X connect 3 0 19 1;
#X connect 4 0 8 0;
#X connect 5 0 6 0;
#X connect 6 0 7 0;
#X connect 7 0 8 1;
#X connect 8 0 10 0;
#X connect 9 0 17 0;
#X connect 10 0 17 0;
#X connect 11 0 12 0;
#X connect 12 0 20 0;
#X connect 12 0 4 0;
#X connect 13 0 14 0;
#X connect 14 0 21 0;
#X connect 14 0 1 0;
#X connect 15 0 9 0;
#X connect 16 0 18 0;
#X connect 16 0 19 0;
#X connect 18 0 2 0;
#X connect 18 0 0 0;
#X connect 19 0 5 0;
#X connect 19 0 3 0;
#X connect 22 0 15 1;
#X connect 23 0 22 0;
#X restore -113 207 pd geiger;
#X obj 343 197 pitchshifter 1;
#X obj -26 107 vsl 15 75 0 1 0 0 empty empty volume 0 -9 0 10 -4034
-1 -1 2900 1;
#X obj 128 109 vsl 15 75 0 1 0 0 empty empty volume 0 -9 0 10 -4034
-1 -1 7400 1;
#X obj 258 191 vsl 15 75 0 1.5 0 0 empty empty volume 0 -9 0 10 -4034
-1 -1 7400 1;
#X obj 425 300 vsl 15 75 0 1 0 0 empty empty volume 0 -9 0 10 -4034
-1 -1 7000 1;
#X msg -375 429 open iceland01.wav;
#X obj 233 345 tanh~;
#X obj 342 319 *~;
#X obj -140 321 vsl 15 75 0 1 0 0 empty empty volume 0 -9 0 10 -4034
-1 -1 4400 1;
#N canvas 358 174 450 462 mq2sound 0;
#X obj 18 116 * 5;
#X obj 18 149 *~ 0.7;
#X obj 18 180 osc~;
#X obj 150 282 /~ 2;
#X obj 94 181 osc~;
#X obj 179 177 osc~;
#X obj 263 179 osc~;
#X obj 221 255 inlet;
#X obj 150 319 *~;
#X obj 150 357 outlet~;
#X obj 179 146 *~ 0.7;
#X obj 94 150 *~ 0.7;
#X obj 94 117 * 10;
#X obj 179 113 * 15;
#X obj 263 115 * 10;
#X obj 263 148 /~ 6.2832;
#X obj 173 14 r mq2;
#X obj 173 43 * 0.5;
#X connect 0 0 1 0;
#X connect 1 0 2 0;
#X connect 2 0 3 0;
#X connect 3 0 8 0;
#X connect 4 0 3 0;
#X connect 5 0 3 0;
#X connect 6 0 3 0;
#X connect 7 0 8 1;
#X connect 8 0 9 0;
#X connect 10 0 5 0;
#X connect 11 0 4 0;
#X connect 12 0 11 0;
#X connect 13 0 10 0;
#X connect 14 0 15 0;
#X connect 15 0 6 0;
#X connect 16 0 17 0;
#X connect 17 0 0 0;
#X connect 17 0 12 0;
#X connect 17 0 13 0;
#X connect 17 0 14 0;
#X restore -85 371 pd mq2sound;
#X obj -176 44 vsl 15 75 0 5 0 0 empty empty volume 0 -9 0 10 -4034
-1 -1 0 1;
#X text -378 -59 Soundscape for Thesis May 2018;
#X obj -110 505 limiter~;
#N canvas 875 184 741 496 limiter 0;
#X obj 360 286 *~;
#X text 393 39 gain-scaler;
#X text 520 46 limiter on off;
#X text 263 24 channel;
#X text 263 37 on/off;
#X obj 393 89 line;
#N canvas 227 144 311 333 limiter 0;
#X obj 226 52 inlet;
#X obj 226 89 switch~;
#X obj 107 189 limiter~ 50;
#X msg 128 131 LIMIT;
#X obj 145 63 loadbang;
#X msg 172 131 set 100 40 100;
#X obj 49 187 z~ 64;
#X obj 72 227 *~;
#X obj 47 40 inlet~ signal;
#X obj 71 262 outlet~ signal;
#X connect 0 0 1 0;
#X connect 2 0 7 1;
#X connect 3 0 2 0;
#X connect 4 0 3 0;
#X connect 4 0 5 0;
#X connect 5 0 2 0;
#X connect 6 0 7 0;
#X connect 7 0 9 0;
#X connect 8 0 2 0;
#X connect 8 0 6 0;
#X restore 389 328 pd limiter;
#X obj 253 170 *~;
#X obj 268 138 sig~;
#X obj 163 80 hip~ 20;
#X text 143 34 signal microphone;
#X obj 314 415 prvu~;
#X obj 393 60 r \$1-gain;
#X obj 520 68 r \$1-limiter;
#X obj 394 234 sig~;
#X obj 43 34 vu 15 80 empty empty -1 -8 0 10 -66577 -1 0 0;
#X obj 21 34 vsl 10 80 0 12 0 0 \$0-gain-r \$0-gain-s 0.999494 2 90
0 10 -262144 -1 -1 0 1;
#X obj 21 15 tgl 15 0 \$0-chan-onoff-r \$0-chan-onoff-s on/off 20 8
0 10 -262144 -258113 -1 0 1;
#X obj 21 130 tgl 15 0 \$0-limiter-r \$0-limiter-s limiter 20 8 0 10
-262144 -1 -1 0 1;
#N canvas 0 22 547 426 switch~ 0;
#X text 63 22 switch between two audio inputs;
#X obj 353 261 line~;
#X obj 441 204 line~;
#X obj 337 289 *~;
#X obj 424 292 *~;
#X obj 353 190 - 1;
#X obj 351 213 abs;
#X obj 442 148 tgl 15 0 empty empty empty 0 -6 0 8 -262144 -1 -1 0
1;
#X obj 337 131 osc~;
#X obj 396 130 osc~;
#X msg 352 233 \$1 30;
#X msg 441 176 \$1 30;
#X obj 408 320 +~;
#X obj 397 349 dac~;
#X text 341 75 Test:;
#X obj 73 134 inlet~;
#X text 73 116 input1;
#X obj 120 271 line~;
#X obj 208 214 line~;
#X obj 104 299 *~;
#X obj 191 302 *~;
#X obj 120 200 - 1;
#X obj 118 223 abs;
#X msg 119 243 \$1 30;
#X msg 208 186 \$1 30;
#X obj 175 330 +~;
#X obj 136 134 inlet~;
#X text 136 116 input2;
#X obj 207 133 inlet;
#X text 207 114 toggle;
#X obj 175 357 outlet~;
#X text 65 34 with toggle on it switsches to 2nd input;
#X obj 330 103 nbx 5 14 -1e+37 1e+37 0 0 empty empty empty 0 -6 0 10
-262144 -1 -1 0 256;
#X obj 395 102 nbx 5 14 -1e+37 1e+37 0 0 empty empty empty 0 -6 0 10
-262144 -1 -1 0 256;
#X obj 185 59 loadbang;
#X msg 186 89 0;
#X connect 1 0 3 1;
#X connect 2 0 4 1;
#X connect 3 0 12 0;
#X connect 4 0 12 1;
#X connect 5 0 6 0;
#X connect 6 0 10 0;
#X connect 7 0 5 0;
#X connect 7 0 11 0;
#X connect 8 0 3 0;
#X connect 9 0 4 0;
#X connect 10 0 1 0;
#X connect 11 0 2 0;
#X connect 12 0 13 0;
#X connect 12 0 13 1;
#X connect 15 0 19 0;
#X connect 17 0 19 1;
#X connect 18 0 20 1;
#X connect 19 0 25 0;
#X connect 20 0 25 1;
#X connect 21 0 22 0;
#X connect 22 0 23 0;
#X connect 23 0 17 0;
#X connect 24 0 18 0;
#X connect 25 0 30 0;
#X connect 26 0 20 0;
#X connect 28 0 24 0;
#X connect 28 0 21 0;
#X connect 32 0 8 0;
#X connect 33 0 9 0;
#X connect 34 0 35 0;
#X connect 35 0 24 0;
#X connect 35 0 21 0;
#X restore 360 375 pd switch~;
#X obj 269 86 s \$0-chan-onoff-s;
#X obj 268 114 r \$0-chan-onoff-r;
#X obj 268 61 r \$1-chan-onoff;
#X obj 393 116 s \$0-gain-s;
#X obj 394 201 r \$0-gain-r;
#X obj 520 100 s \$0-limiter-s;
#X obj 522 133 r \$0-limiter-r;
#X msg 413 172 label \$1;
#X obj 412 142 makefilename %f;
#X obj 360 415 outlet~ signal;
#X obj 162 56 inlet~;
#X obj 254 5 loadbang;
#X msg 238 60 1;
#X obj 2 10 cnv 15 100 60 empty empty empty 20 12 0 14 -233017 -66577
0;
#X connect 0 0 19 0;
#X connect 0 0 6 0;
#X connect 5 0 23 0;
#X connect 6 0 19 1;
#X connect 7 0 0 0;
#X connect 8 0 7 1;
#X connect 9 0 7 0;
#X connect 11 0 15 0;
#X connect 12 0 5 0;
#X connect 13 0 25 0;
#X connect 14 0 0 1;
#X connect 19 0 11 0;
#X connect 19 0 29 0;
#X connect 21 0 8 0;
#X connect 22 0 20 0;
#X connect 24 0 14 0;
#X connect 24 0 28 0;
#X connect 26 0 6 1;
#X connect 26 0 19 2;
#X connect 27 0 23 0;
#X connect 28 0 27 0;
#X connect 30 0 9 0;
#X connect 31 0 32 0;
#X connect 32 0 20 0;
#X connect 32 0 5 0;
#X restore -118 531 pd limiter;
#N canvas 910 471 450 300 output 0;
#X obj 129 256 writesf~ 2;
#X obj 269 260 dac~;
#X obj 371 56 inlet;
#X obj 373 86 inlet;
#X obj 42 49 inlet~;
#X obj 104 51 inlet~;
#X obj 165 55 inlet~;
#X obj 229 53 inlet~;
#X obj 306 54 inlet~;
#X connect 2 0 0 0;
#X connect 3 0 0 0;
#X connect 4 0 0 0;
#X connect 4 0 0 1;
#X connect 4 0 1 0;
#X connect 4 0 1 1;
#X connect 5 0 0 0;
#X connect 5 0 0 1;
#X connect 5 0 1 0;
#X connect 5 0 1 1;
#X connect 6 0 0 0;
#X connect 6 0 0 1;
#X connect 6 0 1 0;
#X connect 6 0 1 1;
#X connect 7 0 0 0;
#X connect 7 0 0 1;
#X connect 7 0 1 0;
#X connect 7 0 1 1;
#X connect 8 0 0 0;
#X connect 8 0 0 1;
#X connect 8 0 1 0;
#X connect 8 0 1 1;
#X restore 37 446 pd output;
#X obj -305 373 s mq5.2;
#X obj 221 157 r mq5.2;
#X obj 38 206 tanh~;
#X obj 30 169 clip~ -1 1;
#X obj -64 444 tanh~;
#X obj -73 421 clip~ -1 1;
#X obj -40 294 tanh~;
#X obj 534 173 *~ 0.01;
#X obj -147 257 s dust2;
#X msg 173 470 open tampa02.wav -bytes 4 \$1 \, start;
#X msg 171 493 open iceland02.wav -bytes 4 \$1 \, start;
#X msg 172 445 open innsbrook01.wav -bytes 4 \$1 \, start;
#X obj 168 139 r dust;
#X obj 3 523 line;
#X obj 203 304 *~;
#X obj 341 166 *~;
#X obj 247 305 line~;
#X msg 246 280 \$1 200;
#X msg -375 275 \$1 200;
#X obj -379 304 line;
#X obj 509 94 r mq5;
#X obj 547 152 line~;
#X msg 517 124 \$1 200;
#X obj 53 136 *~;
#X obj 77 135 line~;
#X msg 76 110 \$1 50;
#X msg 170 162 \$1 200;
#X obj 171 187 line;
#X obj 373 338 line~;
#X msg 372 313 \$1 200;
#X obj 105 370 clip~ -1 1;
#X obj 123 344 tanh~;
#X msg 208 187 \$1 200;
#X obj 209 212 line;
#X obj -107 346 line~;
#X obj -103 397 *~;
#X msg -112 323 \$1 200;
#X obj -71 249 *~ 1;
#X msg -40 192 \$1 200;
#X obj -39 217 line;
#X connect 1 0 7 0;
#X connect 1 2 0 0;
#X connect 2 0 1 0;
#X connect 3 0 71 0;
#X connect 4 0 23 0;
#X connect 5 0 24 0;
#X connect 5 0 61 0;
#X connect 6 0 11 0;
#X connect 7 0 3 0;
#X connect 7 1 4 0;
#X connect 7 2 5 0;
#X connect 11 0 2 0;
#X connect 12 0 52 6;
#X connect 13 0 16 0;
#X connect 14 0 16 0;
#X connect 16 0 15 0;
#X connect 16 0 15 1;
#X connect 18 0 17 0;
#X connect 20 0 19 0;
#X connect 21 0 30 0;
#X connect 22 0 32 0;
#X connect 23 0 28 0;
#X connect 23 0 9 0;
#X connect 24 0 26 0;
#X connect 26 0 27 0;
#X connect 27 0 10 0;
#X connect 28 0 29 0;
#X connect 29 0 53 0;
#X connect 30 0 31 0;
#X connect 31 0 34 0;
#X connect 32 0 33 0;
#X connect 33 0 34 1;
#X connect 34 0 76 0;
#X connect 35 0 37 0;
#X connect 36 0 67 0;
#X connect 36 0 68 0;
#X connect 37 0 90 0;
#X connect 38 0 45 0;
#X connect 39 0 91 0;
#X connect 40 0 78 0;
#X connect 41 0 70 0;
#X connect 42 0 82 0;
#X connect 43 0 16 0;
#X connect 44 0 52 4;
#X connect 45 0 44 0;
#X connect 46 0 89 0;
#X connect 47 0 88 1;
#X connect 48 0 19 1;
#X connect 54 0 85 0;
#X connect 55 0 52 2;
#X connect 56 0 55 0;
#X connect 57 0 52 0;
#X connect 58 0 57 0;
#X connect 59 0 52 1;
#X connect 60 0 38 1;
#X connect 62 0 52 5;
#X connect 63 0 52 5;
#X connect 64 0 52 6;
#X connect 65 0 79 0;
#X connect 67 0 84 0;
#X connect 68 0 38 0;
#X connect 69 0 67 1;
#X connect 70 0 69 0;
#X connect 71 0 72 0;
#X connect 72 0 8 0;
#X connect 73 0 75 0;
#X connect 74 0 60 0;
#X connect 75 0 74 0;
#X connect 76 0 56 0;
#X connect 77 0 76 1;
#X connect 78 0 77 0;
#X connect 79 0 80 0;
#X connect 80 0 36 0;
#X connect 81 0 45 1;
#X connect 82 0 81 0;
#X connect 83 0 52 3;
#X connect 84 0 83 0;
#X connect 85 0 86 0;
#X connect 86 0 36 1;
#X connect 86 0 36 2;
#X connect 87 0 88 0;
#X connect 88 0 58 0;
#X connect 89 0 87 0;
#X connect 90 0 59 0;
#X connect 91 0 92 0;
#X connect 92 0 90 1;
