#N canvas 572 22 909 820 10;
#X obj 391 799 dac~;
#X obj 207 643 osc~;
#X floatatom 98 459 5 0 0 0 - - -;
#X obj 128 546 *~;
#X obj 150 597 +~;
#X floatatom 169 521 5 0 0 0 - - -;
#X floatatom 192 583 5 0 0 0 - - -;
#X text 169 540 Good spot for dust data;
#X obj 285 703 *~ 0.25;
#X obj 15 14 cnv 15 100 60 empty empty empty 20 12 0 14 -233017 -66577
0;
#X text 20 17 Soundscape Trials for Thesis Feb 11 2018;
#X obj 424 328 tgl 15 0 empty empty empty 17 7 0 10 -262144 -1 -1 1
1;
#X obj 425 368 metro 1000;
#X obj 512 368 random 5000;
#X obj 428 401 random 100;
#X obj 433 432 / 10;
#X obj 445 470 phasor~ 10;
#X floatatom 387 466 5 0 0 0 - - -;
#X obj 519 410 random 2500;
#X msg 537 442 \$1 100;
#X obj 547 472 line;
#X obj 484 540 bp~ 500 0.95;
#X obj 489 618 *~ 1;
#X obj 666 329 tgl 15 0 empty empty empty 17 7 0 10 -262144 -1 -1 1
1;
#X obj 667 369 metro 1000;
#X obj 754 369 random 5000;
#X obj 670 402 random 100;
#X obj 675 433 / 10;
#X obj 687 471 phasor~ 10;
#X floatatom 629 467 5 0 0 0 - - -;
#X obj 761 411 random 2500;
#X msg 779 443 \$1 100;
#X obj 789 473 line;
#X obj 726 541 bp~ 500 0.95;
#X obj 731 619 *~ 1;
#X obj 99 503 osc~;
#X obj 268 249 print ERROR;
#X obj 157 216 convert.ascii2pd CR;
#N canvas 712 205 905 623 in&out 0;
#X obj 114 116 list-extend;
#X obj 191 77 sel 10;
#X msg 191 185 49 48 46 51 56 13;
#X obj 190 157 prepend set;
#X obj 193 236 gate;
#X msg 126 209 0;
#X msg 160 207 1;
#X obj 116 30 inlet;
#X obj 198 268 outlet;
#X obj 87 80 route 10;
#X connect 0 0 3 0;
#X connect 1 0 0 1;
#X connect 1 0 6 0;
#X connect 1 0 2 0;
#X connect 1 1 5 0;
#X connect 2 0 4 1;
#X connect 3 0 2 0;
#X connect 4 0 8 0;
#X connect 5 0 4 0;
#X connect 6 0 4 0;
#X connect 7 0 1 0;
#X connect 7 0 9 0;
#X connect 9 1 0 0;
#X restore 157 179 pd in&out;
#X floatatom 214 378 5 0 0 0 - - -;
#X floatatom 255 366 5 0 0 0 - - -;
#X floatatom 304 366 5 0 0 0 - - -;
#X msg 123 95 devices;
#X obj 157 144 comport 4 9600;
#X obj 235 291 unpack 0 0 0;
#X connect 1 0 8 0;
#X connect 2 0 35 0;
#X connect 3 0 4 0;
#X connect 4 0 1 0;
#X connect 5 0 3 1;
#X connect 6 0 4 1;
#X connect 8 0 0 0;
#X connect 8 0 0 1;
#X connect 11 0 12 0;
#X connect 12 0 14 0;
#X connect 12 0 18 0;
#X connect 12 0 13 0;
#X connect 13 0 12 1;
#X connect 14 0 15 0;
#X connect 15 0 16 0;
#X connect 15 0 17 0;
#X connect 16 0 21 0;
#X connect 18 0 19 0;
#X connect 19 0 20 0;
#X connect 20 0 21 1;
#X connect 21 0 22 0;
#X connect 22 0 0 0;
#X connect 22 0 0 1;
#X connect 23 0 24 0;
#X connect 24 0 26 0;
#X connect 24 0 30 0;
#X connect 24 0 25 0;
#X connect 25 0 24 1;
#X connect 26 0 27 0;
#X connect 27 0 28 0;
#X connect 27 0 29 0;
#X connect 28 0 33 0;
#X connect 30 0 31 0;
#X connect 31 0 32 0;
#X connect 32 0 33 1;
#X connect 33 0 34 0;
#X connect 34 0 0 0;
#X connect 34 0 0 1;
#X connect 35 0 3 0;
#X connect 37 0 44 0;
#X connect 37 2 36 0;
#X connect 38 0 37 0;
#X connect 41 0 5 0;
#X connect 42 0 43 0;
#X connect 43 0 38 0;
#X connect 44 0 39 0;
#X connect 44 1 40 0;
#X connect 44 2 41 0;
